<?xml version="1.0" standalone="no"?>
<!DOCTYPE svg PUBLIC "-//W3C//DTD SVG 20010904//EN"
 "http://www.w3.org/TR/2001/REC-SVG-20010904/DTD/svg10.dtd">
<svg version="1.0" xmlns="http://www.w3.org/2000/svg"
 width="1024.000000pt" height="1024.000000pt" viewBox="0 0 1024.000000 1024.000000"
 preserveAspectRatio="xMidYMid meet">

<g transform="translate(0.000000,1024.000000) scale(0.100000,-0.100000)"
fill="#fff" stroke="none">
<path d="M0 5120 l0 -5120 5120 0 5120 0 0 5120 0 5120 -5120 0 -5120 0 0
-5120z m5530 2895 c357 -61 693 -203 960 -405 100 -76 250 -208 250 -220 0 -6
-98 -10 -254 -10 -140 0 -260 -2 -268 -5 -7 -3 -62 24 -123 60 -180 106 -389
188 -595 232 -133 28 -507 25 -650 -5 -212 -46 -418 -126 -615 -241 l-80 -46
-273 5 -274 5 64 60 c136 130 310 249 521 356 155 79 297 132 469 174 123 30
179 40 338 59 80 9 439 -3 530 -19z m-126 -1027 c269 -1100 358 -1468 387
-1601 18 -81 36 -141 40 -135 4 7 29 108 57 223 95 389 114 471 237 1015 30
135 74 320 96 413 l41 167 534 0 534 0 0 -90 0 -90 -69 0 c-239 0 -440 -105
-590 -309 -91 -124 -131 -221 -180 -436 -82 -363 -187 -816 -240 -1035 -33
-135 -87 -362 -121 -505 -33 -143 -79 -333 -102 -423 l-41 -163 -86 -69 c-47
-38 -103 -83 -124 -101 -21 -17 -39 -30 -41 -28 -5 5 -113 455 -215 899 -28
118 -111 466 -185 773 -75 306 -136 564 -136 572 0 7 -4 16 -8 19 -5 3 -30
-84 -55 -192 -26 -108 -85 -352 -132 -542 -46 -190 -132 -550 -190 -800 -115
-494 -170 -718 -178 -727 -5 -4 -62 41 -253 202 -25 20 -60 144 -127 445 -41
180 -133 581 -198 860 -33 140 -82 354 -110 475 -104 459 -128 546 -174 640
-72 146 -183 266 -327 353 -100 60 -225 91 -365 92 l-63 0 0 90 0 90 538 0
538 0 16 -67 c8 -38 55 -228 102 -423 100 -406 263 -1095 297 -1250 20 -91 24
-101 31 -75 18 67 291 1190 358 1470 39 165 90 371 112 458 l42 157 132 0 132
0 86 -352z m-2154 -479 c73 -26 140 -77 189 -141 l40 -53 -15 -60 c-26 -112
-36 -292 -24 -442 29 -369 148 -682 352 -930 65 -80 64 -78 138 -408 16 -71
38 -158 48 -192 11 -35 16 -63 11 -63 -20 0 -263 206 -359 306 -169 174 -281
335 -367 526 -164 361 -216 681 -183 1104 10 117 43 333 57 370 7 18 28 14
113 -17z m3993 -106 c100 -508 43 -957 -178 -1404 -97 -196 -225 -369 -396
-534 -109 -106 -327 -271 -315 -239 14 34 136 541 136 562 0 7 28 45 62 85
176 205 297 475 354 792 31 174 27 463 -10 604 -11 44 -11 51 7 72 34 44 89
100 123 126 34 25 144 71 175 72 12 1 21 -30 42 -136z m-1908 -2268 c14 -60
31 -140 39 -177 l13 -67 -45 -7 c-53 -8 -329 1 -355 11 -10 4 -16 14 -13 21 3
7 22 85 43 172 l38 159 127 -1 128 -1 25 -110z m-1030 -580 c39 -7 93 -31 129
-57 17 -14 16 -17 -24 -71 -24 -31 -44 -57 -46 -57 -2 0 -24 11 -50 25 -75 40
-164 26 -164 -25 0 -25 18 -34 118 -59 161 -40 196 -72 190 -177 -6 -104 -64
-163 -182 -185 -95 -17 -238 23 -292 82 -14 16 -13 21 22 68 21 28 41 51 44
51 3 0 32 -14 64 -30 41 -21 73 -30 106 -30 89 0 119 59 41 80 -20 5 -61 17
-91 25 -121 34 -174 88 -173 175 1 70 43 135 112 170 28 14 107 28 136 24 11
-1 38 -6 60 -9z m2867 -22 c85 -38 87 -43 37 -105 -24 -29 -44 -54 -44 -55 -1
-1 -23 9 -50 22 -53 27 -91 31 -129 14 -67 -31 -31 -70 84 -95 126 -27 184
-70 196 -145 13 -78 -32 -160 -110 -202 -33 -18 -57 -22 -131 -22 -98 0 -151
17 -219 71 l-35 28 37 51 c19 27 37 51 38 53 1 2 26 -9 54 -24 95 -50 210 -41
210 16 0 20 -7 23 -153 60 -154 40 -201 165 -110 288 60 81 199 100 325 45z
m550 0 c85 -38 87 -43 37 -105 -24 -29 -44 -54 -44 -55 -1 -1 -19 7 -42 18
-60 30 -108 35 -138 15 -18 -12 -25 -24 -23 -39 3 -23 19 -29 171 -72 31 -9
70 -28 86 -41 88 -73 52 -227 -66 -285 -39 -20 -64 -24 -133 -24 -93 0 -148
18 -214 71 l-34 28 41 50 c23 28 42 52 42 53 1 1 23 -9 51 -23 95 -47 204 -42
204 10 0 21 -7 27 -42 37 -192 51 -235 76 -259 146 -25 77 18 176 93 214 83
42 176 43 270 2z m-5149 17 l62 0 55 -156 c30 -85 57 -157 60 -159 4 -2 32 67
62 153 l56 157 55 3 55 3 50 -128 c28 -70 54 -140 57 -156 4 -15 10 -29 14
-32 4 -2 25 44 46 103 21 59 47 131 57 160 l19 52 80 0 c79 0 80 0 74 -22 -12
-38 -177 -501 -192 -536 -14 -33 -14 -33 -74 -30 l-61 3 -52 140 c-28 77 -55
149 -59 160 -6 15 -21 -13 -64 -125 -30 -80 -57 -153 -60 -162 -4 -15 -17 -18
-65 -18 l-59 0 -18 43 c-24 56 -191 536 -191 549 0 6 7 7 16 4 9 -3 43 -6 77
-6z m1088 5 c42 -7 35 6 160 -288 49 -115 98 -226 109 -247 11 -22 20 -44 20
-50 0 -6 -33 -10 -86 -10 l-85 0 -21 50 -21 50 -109 0 -109 0 -22 -50 -22 -50
-87 0 -86 0 20 43 c31 63 84 187 143 332 90 221 89 220 127 223 18 2 49 0 69
-3z m2189 -225 l5 -225 133 -3 132 -3 0 -69 0 -70 -210 0 -210 0 0 88 c0 49 3
184 7 301 l6 212 66 -3 66 -3 5 -225z m830 150 l0 -69 -142 -3 -143 -3 -3 -42
-3 -43 116 0 116 0 -3 -67 -3 -68 -112 -3 -113 -3 0 -39 0 -40 144 0 145 0 3
-27 c2 -16 1 -47 -1 -70 l-3 -43 -214 0 -214 0 0 298 0 297 215 -3 215 -3 0
-69z m-1660 0 l0 -70 -85 0 -85 0 0 -225 0 -225 -70 0 -70 0 0 225 0 225 -90
0 -90 0 0 70 0 70 245 0 245 0 0 -70z m550 0 l0 -69 -142 -3 -143 -3 -3 -42
-3 -43 121 0 121 0 -3 -67 -3 -68 -118 -3 -118 -3 3 -37 3 -37 138 -3 137 -3
0 -69 0 -70 -216 0 -217 0 7 61 c3 34 6 167 6 295 l0 234 215 0 215 0 0 -70z
m-1815 -737 c33 -117 63 -198 68 -183 3 8 22 63 43 123 l37 107 41 0 41 -1 27
-83 c15 -45 35 -100 44 -122 20 -46 15 -55 60 114 l28 102 53 0 c29 0 53 -3
53 -7 -1 -16 -117 -433 -122 -439 -4 -3 -24 -8 -46 -11 l-40 -5 -40 103 c-21
57 -43 114 -47 127 -4 13 -10 21 -13 17 -4 -4 -25 -59 -47 -123 l-40 -117 -44
0 c-43 0 -44 0 -62 50 -30 82 -119 376 -119 391 0 10 14 14 55 14 l54 0 16
-57z m1015 -167 l0 -225 -27 -3 c-16 -2 -40 -1 -55 1 l-28 3 0 84 0 84 -90 0
-90 0 0 -90 0 -90 -49 0 c-28 0 -53 5 -56 11 -4 6 -4 107 0 225 l7 214 49 0
49 0 0 -85 0 -85 90 0 90 0 0 90 0 90 55 0 55 0 0 -224z m458 218 l52 -7 0
-48 0 -49 -115 0 -115 0 0 -35 0 -35 85 0 85 0 0 -45 0 -45 -85 0 -85 0 0 -40
0 -40 115 0 115 0 0 -55 0 -55 -170 0 -170 0 0 230 0 230 118 0 c64 0 141 -3
170 -6z m465 -4 l77 0 0 -50 0 -50 -110 0 -110 0 0 -35 0 -35 90 0 90 0 0 -45
0 -45 -90 0 -90 0 0 -40 0 -39 113 -3 112 -3 0 -47 c-1 -26 -3 -49 -5 -52 -3
-2 -78 -2 -167 1 l-163 6 0 218 0 218 68 4 c37 2 76 2 87 0 11 -1 55 -3 98 -3z
m345 -167 l2 -172 108 -3 107 -3 0 -50 0 -50 -160 0 -160 0 -3 215 c-1 118 0
220 3 228 3 9 20 12 52 10 l48 -3 3 -172z m610 147 c34 -16 62 -31 62 -34 0
-2 -14 -20 -31 -39 l-31 -35 -45 20 c-54 24 -108 18 -118 -12 -10 -31 -1 -37
82 -55 87 -20 115 -34 131 -71 46 -100 -36 -200 -163 -198 -51 0 -134 31 -167
61 -16 15 -16 17 9 52 15 20 28 37 29 39 1 2 20 -9 43 -23 52 -35 120 -44 145
-20 31 31 16 49 -57 66 -104 26 -126 38 -148 82 -36 69 -5 142 75 178 59 27
111 24 184 -11z"/>
<path d="M3593 3277 l-31 -75 64 -4 c39 -2 64 1 63 7 0 6 -15 41 -32 79 l-32
68 -32 -75z"/>
</g>
</svg>
